<svg xmlns="http://www.w3.org/2000/svg" width="24" height="24" viewBox="0 0 24 24" fill="none" style="color: white">
    <path d="M11.9094 12.8157L15.6594 15.6282C15.9357 15.8354 16.3272 15.7794 16.5344 15.5032C16.7416 15.2269 16.6857 14.8354 16.4094 14.6282L12.9375 12V6.6875C12.9375 6.34219 12.6578 6.0625 12.3125 6.0625C11.9672 6.0625 11.6875 6.34219 11.6875 6.6875V12.3125C11.6875 12.52 11.7744 12.7069 11.9094 12.8157Z" fill="white"/>
    <path d="M12.625 2.625C8.05031 2.625 4.14371 5.9269 3.38121 10.4376L3.1437 10.0844C2.95027 9.79786 2.56151 9.72224 2.27495 9.91568C1.98838 10.1091 1.91276 10.4979 2.1062 10.7844L3.35621 12.6594C3.45902 12.8157 3.62652 12.9179 3.81246 12.9376H3.87496C4.04059 12.9369 4.19903 12.8707 4.31559 12.7532L5.8781 11.1907C6.12217 10.9466 6.12217 10.5504 5.8781 10.3063C5.63404 10.0622 5.23778 10.0622 4.99372 10.3063L4.60622 10.6969C5.32591 6.26753 9.50001 3.26063 13.9291 3.98032C18.3582 4.70002 21.3657 8.87379 20.646 13.3032C20.007 17.2364 16.6098 20.1258 12.625 20.1251C10.1119 20.1708 7.73499 18.9851 6.25936 16.9501C6.05904 16.6689 5.66873 16.6029 5.38747 16.8032C5.10622 17.0035 5.04028 17.3939 5.2406 17.6751C6.94936 20.0414 9.70688 21.4229 12.625 21.3751C17.8029 21.3751 22.0001 17.1779 22.0001 12.0001C22.0001 6.82222 17.8029 2.625 12.625 2.625Z" fill="white"/>
</svg>