<svg xmlns="http://www.w3.org/2000/svg" width="24" height="24" viewBox="0 0 24 24" fill="none">
    <path d="M5.88533 17.1591C7.75059 16.1048 9.8574 15.5523 12 15.5556C14.2222 15.5556 16.3084 16.1378 18.1147 17.1591M14.6667 10.2222C14.6667 10.9295 14.3857 11.6077 13.8856 12.1078C13.3855 12.6079 12.7072 12.8889 12 12.8889C11.2928 12.8889 10.6145 12.6079 10.1144 12.1078C9.61428 11.6077 9.33333 10.9295 9.33333 10.2222C9.33333 9.51498 9.61428 8.8367 10.1144 8.3366C10.6145 7.83651 11.2928 7.55556 12 7.55556C12.7072 7.55556 13.3855 7.83651 13.8856 8.3366C14.3857 8.8367 14.6667 9.51498 14.6667 10.2222ZM20 12C20 13.0506 19.7931 14.0909 19.391 15.0615C18.989 16.0321 18.3997 16.914 17.6569 17.6569C16.914 18.3997 16.0321 18.989 15.0615 19.391C14.0909 19.7931 13.0506 20 12 20C10.9494 20 9.90914 19.7931 8.93853 19.391C7.96793 18.989 7.08601 18.3997 6.34315 17.6569C5.60028 16.914 5.011 16.0321 4.60896 15.0615C4.20693 14.0909 4 13.0506 4 12C4 9.87827 4.84285 7.84344 6.34315 6.34315C7.84344 4.84285 9.87827 4 12 4C14.1217 4 16.1566 4.84285 17.6569 6.34315C19.1571 7.84344 20 9.87827 20 12Z" stroke="#E1E5EA" stroke-width="1.24444" stroke-linecap="round" stroke-linejoin="round"/>
</svg>