<svg width="493" height="166" viewBox="0 0 493 166" fill="none" xmlns="http://www.w3.org/2000/svg">
<path d="M135.622 131.212V147.812H133V131.212H135.622Z" fill="#090619"/>
<path d="M151.928 147.812H149.306L141.417 135.562V147.812H138.795V131.235H141.417L149.306 143.533V131.235H151.928V147.812Z" fill="#090619"/>
<path d="M165.543 131.212V133.375H161.012V147.812H158.367V133.375H153.859V131.212H165.543Z" fill="#090619"/>
<path d="M175.02 131C176.523 131 177.88 131.361 179.091 132.082C180.318 132.803 181.276 133.814 181.966 135.115C182.671 136.4 183.024 137.858 183.024 139.488C183.024 141.118 182.671 142.584 181.966 143.885C181.276 145.171 180.318 146.182 179.091 146.918C177.88 147.639 176.523 148 175.02 148C173.502 148 172.13 147.639 170.903 146.918C169.692 146.182 168.734 145.171 168.028 143.885C167.323 142.584 166.97 141.118 166.97 139.488C166.97 137.858 167.323 136.4 168.028 135.115C168.734 133.814 169.692 132.803 170.903 132.082C172.13 131.361 173.502 131 175.02 131ZM175.02 133.492C173.978 133.492 173.05 133.735 172.237 134.221C171.425 134.707 170.788 135.405 170.328 136.314C169.884 137.223 169.661 138.281 169.661 139.488C169.661 140.695 169.884 141.753 170.328 142.663C170.788 143.572 171.425 144.269 172.237 144.755C173.05 145.241 173.978 145.484 175.02 145.484C176.048 145.484 176.96 145.241 177.757 144.755C178.57 144.269 179.198 143.572 179.643 142.663C180.103 141.753 180.333 140.695 180.333 139.488C180.333 138.281 180.103 137.223 179.643 136.314C179.198 135.405 178.57 134.707 177.757 134.221C176.96 133.735 176.048 133.492 175.02 133.492Z" fill="#090619"/>
<path d="M201.502 131.212V133.375H196.971V147.812H194.326V133.375H189.818V131.212H201.502Z" fill="#090619"/>
<path d="M216.361 131.212V147.812H213.716V140.358H206.081V147.812H203.459V131.212H206.081V138.172H213.716V131.212H216.361Z" fill="#090619"/>
<path d="M222.162 133.375V138.407H228.142V140.476H222.162V145.625H228.832V147.812H219.54V131.212H228.832V133.375H222.162Z" fill="#090619"/>
<path d="M246.358 131.212V133.375H239.389V138.524H245.139V140.593H239.389V147.812H236.768V131.212H246.358Z" fill="#090619"/>
<path d="M251.201 131.212V141.064C251.201 142.537 251.515 143.634 252.144 144.355C252.788 145.077 253.685 145.437 254.835 145.437C255.97 145.437 256.851 145.077 257.48 144.355C258.124 143.634 258.446 142.537 258.446 141.064V131.212H261.068V141.064C261.068 143.337 260.493 145.061 259.343 146.237C258.193 147.396 256.675 147.976 254.789 147.976C252.918 147.976 251.416 147.396 250.281 146.237C249.146 145.061 248.579 143.337 248.579 141.064V131.212H251.201Z" fill="#090619"/>
<path d="M274.566 131.212V133.375H270.035V147.812H267.39V133.375H262.882V131.212H274.566Z" fill="#090619"/>
<path d="M279.03 131.212V141.064C279.03 142.537 279.344 143.634 279.973 144.355C280.617 145.077 281.514 145.437 282.664 145.437C283.798 145.437 284.68 145.077 285.308 144.355C285.952 143.634 286.274 142.537 286.274 141.064V131.212H288.896V141.064C288.896 143.337 288.321 145.061 287.171 146.237C286.021 147.396 284.503 147.976 282.618 147.976C280.747 147.976 279.244 147.396 278.11 146.237C276.975 145.061 276.408 143.337 276.408 141.064V131.212H279.03Z" fill="#090619"/>
<path d="M300.486 147.812L296.438 141.181H294.575V147.812H291.953V131.212H297.68C299.535 131.212 300.938 131.674 301.889 132.599C302.855 133.524 303.338 134.746 303.338 136.267C303.338 137.568 302.977 138.634 302.257 139.465C301.551 140.296 300.524 140.828 299.175 141.064L303.43 147.812H300.486ZM294.575 139.277H297.473C299.589 139.277 300.647 138.32 300.647 136.408C300.647 135.499 300.386 134.793 299.865 134.292C299.359 133.775 298.562 133.516 297.473 133.516H294.575V139.277Z" fill="#090619"/>
<path d="M308.321 133.375V138.407H314.301V140.476H308.321V145.625H314.991V147.812H305.699V131.212H314.991V133.375H308.321Z" fill="#090619"/>
<path d="M330.608 138.172V140.429H321.132V138.172H330.608Z" fill="#090619"/>
<path d="M347.472 131C348.975 131 350.332 131.361 351.543 132.082C352.769 132.803 353.728 133.814 354.418 135.115C355.123 136.4 355.476 137.858 355.476 139.488C355.476 141.118 355.123 142.584 354.418 143.885C353.728 145.171 352.769 146.182 351.543 146.918C350.332 147.639 348.975 148 347.472 148C345.954 148 344.582 147.639 343.355 146.918C342.144 146.182 341.185 145.171 340.48 143.885C339.775 142.584 339.422 141.118 339.422 139.488C339.422 137.858 339.775 136.4 340.48 135.115C341.185 133.814 342.144 132.803 343.355 132.082C344.582 131.361 345.954 131 347.472 131ZM347.472 133.492C346.429 133.492 345.502 133.735 344.689 134.221C343.876 134.707 343.24 135.405 342.78 136.314C342.335 137.223 342.113 138.281 342.113 139.488C342.113 140.695 342.335 141.753 342.78 142.663C343.24 143.572 343.876 144.269 344.689 144.755C345.502 145.241 346.429 145.484 347.472 145.484C348.499 145.484 349.412 145.241 350.209 144.755C351.022 144.269 351.65 143.572 352.095 142.663C352.555 141.753 352.785 140.695 352.785 139.488C352.785 138.281 352.555 137.223 352.095 136.314C351.65 135.405 351.022 134.707 350.209 134.221C349.412 133.735 348.499 133.492 347.472 133.492Z" fill="#090619"/>
<path d="M371.254 147.812H368.632L360.744 135.562V147.812H358.122V131.235H360.744L368.632 143.533V131.235H371.254V147.812Z" fill="#090619"/>
<path d="M377.05 145.719H382.662V147.812H374.428V131.212H377.05V145.719Z" fill="#090619"/>
<path d="M396.974 131.212L391.569 141.769V147.812H388.924V141.769L383.496 131.212H386.532L390.258 138.9L393.984 131.212H396.974Z" fill="#090619"/>
<path d="M424.884 131.212L420.837 147.812H417.617L414.19 134.974L410.763 147.812H407.543L403.495 131.212H406.37L409.176 144.708L412.741 131.212H415.639L419.204 144.708L422.01 131.212H424.884Z" fill="#090619"/>
<path d="M429.855 131.212V147.812H427.233V131.212H429.855Z" fill="#090619"/>
<path d="M443.469 131.212V133.375H438.938V147.812H436.293V133.375H431.785V131.212H443.469Z" fill="#090619"/>
<path d="M458.328 131.212V147.812H455.683V140.358H448.048V147.812H445.426V131.212H448.048V138.172H455.683V131.212H458.328Z" fill="#090619"/>
<path d="M469.405 131.212V141.064C469.405 142.537 469.719 143.634 470.348 144.355C470.992 145.077 471.889 145.437 473.039 145.437C474.173 145.437 475.055 145.077 475.684 144.355C476.328 143.634 476.65 142.537 476.65 141.064V131.212H479.272V141.064C479.272 143.337 478.697 145.061 477.547 146.237C476.397 147.396 474.879 147.976 472.993 147.976C471.122 147.976 469.619 147.396 468.485 146.237C467.35 145.061 466.783 143.337 466.783 141.064V131.212H469.405Z" fill="#090619"/>
<path d="M493 143.391C493 144.207 492.808 144.967 492.425 145.672C492.042 146.362 491.459 146.918 490.677 147.342C489.895 147.765 488.937 147.976 487.802 147.976C486.698 147.976 485.709 147.781 484.835 147.389C483.961 146.981 483.264 146.417 482.742 145.696C482.221 144.975 481.922 144.144 481.845 143.203H484.651C484.728 143.924 485.027 144.544 485.548 145.061C486.085 145.578 486.798 145.837 487.687 145.837C488.484 145.837 489.098 145.617 489.527 145.178C489.972 144.74 490.194 144.175 490.194 143.485C490.194 142.89 490.033 142.404 489.711 142.028C489.389 141.636 488.99 141.33 488.515 141.111C488.04 140.891 487.388 140.64 486.56 140.358C485.548 140.029 484.72 139.7 484.076 139.371C483.448 139.041 482.911 138.563 482.466 137.936C482.022 137.309 481.799 136.486 481.799 135.467C481.799 134.574 482.014 133.79 482.443 133.116C482.873 132.442 483.486 131.925 484.283 131.564C485.08 131.188 486 131 487.043 131C488.699 131 490.01 131.408 490.976 132.223C491.957 133.038 492.517 134.104 492.655 135.42H489.826C489.719 134.793 489.427 134.26 488.952 133.822C488.492 133.367 487.856 133.14 487.043 133.14C486.307 133.14 485.717 133.336 485.272 133.728C484.827 134.104 484.605 134.652 484.605 135.373C484.605 135.938 484.759 136.408 485.065 136.784C485.372 137.145 485.755 137.435 486.215 137.654C486.69 137.858 487.334 138.101 488.147 138.383C489.174 138.712 490.01 139.049 490.654 139.394C491.313 139.723 491.865 140.209 492.31 140.852C492.77 141.495 493 142.341 493 143.391Z" fill="#090619"/>
<path d="M131 19.0866C131 17.2949 131.622 15.8457 132.865 14.739C134.108 13.5797 135.74 13 137.76 13C139.781 13 141.412 13.5797 142.656 14.739C143.899 15.8457 144.521 17.2949 144.521 19.0866C144.521 20.8256 143.899 22.2748 142.656 23.4341C141.412 24.5408 139.781 25.0941 137.76 25.0941C135.74 25.0941 134.108 24.5408 132.865 23.4341C131.622 22.2748 131 20.8256 131 19.0866ZM143.2 31.655V75.4467H132.243V31.655H143.2Z" stroke="url(#paint0_linear_1064_164)" stroke-opacity="0.8" stroke-width="2"/>
<path d="M178.753 31.0226C183.726 31.0226 187.689 32.6826 190.642 36.0025C193.595 39.3225 195.071 43.9862 195.071 49.9937V75.4467H184.193V51.2585C184.193 47.7804 183.312 45.0928 181.551 43.1957C179.789 41.2459 177.381 40.271 174.324 40.271C171.216 40.271 168.73 41.2986 166.865 43.3538C165 45.409 164.067 48.3601 164.067 52.207V75.4467H153.111V31.655H164.067V40.4291C165.207 37.478 167.072 35.1857 169.662 33.5521C172.304 31.8657 175.334 31.0226 178.753 31.0226Z" stroke="url(#paint1_linear_1064_164)" stroke-opacity="0.8" stroke-width="2"/>
<path d="M223.438 64.3011L234.317 31.655H245.972L230.043 75.4467H216.678L200.748 31.655H212.482L223.438 64.3011Z" stroke="url(#paint2_linear_1064_164)" stroke-opacity="0.8" stroke-width="2"/>
<path d="M292.546 51.8908C292.546 52.9975 292.417 54.2622 292.158 55.6851H260.61C260.765 59.5847 261.801 62.4567 263.718 64.3011C265.635 66.1455 268.017 67.0678 270.867 67.0678C273.405 67.0678 275.503 66.4354 277.161 65.1706C278.87 63.9059 279.958 62.1932 280.424 60.0326H292.002C291.432 63.0891 290.215 65.8294 288.35 68.2535C286.485 70.6775 284.076 72.5747 281.124 73.9448C278.223 75.3149 274.985 76 271.411 76C267.215 76 263.485 75.1041 260.221 73.3124C256.958 71.468 254.419 68.8595 252.606 65.4868C250.793 62.1142 249.887 58.1355 249.887 53.5508C249.887 48.9661 250.793 44.9875 252.606 41.6148C254.419 38.1895 256.958 35.5809 260.221 33.7892C263.485 31.9975 267.215 31.1016 271.411 31.1016C275.658 31.1016 279.362 31.9975 282.522 33.7892C285.734 35.5809 288.195 38.0577 289.904 41.2196C291.665 44.3287 292.546 47.8858 292.546 51.8908ZM281.512 50.7842C281.667 47.2008 280.735 44.4868 278.715 42.6424C276.746 40.798 274.312 39.8758 271.411 39.8758C268.458 39.8758 265.971 40.798 263.951 42.6424C261.931 44.4868 260.817 47.2008 260.61 50.7842H281.512Z" stroke="url(#paint3_linear_1064_164)" stroke-opacity="0.8" stroke-width="2"/>
<path d="M334.571 75.4467L322.216 56.3965L311.26 75.4467H298.749L316 46.9109L298.283 19.6399H311.26L323.382 38.2949L334.182 19.6399H346.693L329.52 47.7014L347.548 75.4467H334.571Z" stroke="url(#paint4_linear_1064_164)" stroke-opacity="0.8" stroke-width="2"/>
<path d="M354.226 19.0866C354.226 17.2949 354.847 15.8457 356.09 14.739C357.334 13.5797 358.965 13 360.986 13C363.006 13 364.638 13.5797 365.881 14.739C367.124 15.8457 367.746 17.2949 367.746 19.0866C367.746 20.8256 367.124 22.2748 365.881 23.4341C364.638 24.5408 363.006 25.0941 360.986 25.0941C358.965 25.0941 357.334 24.5408 356.09 23.4341C354.847 22.2748 354.226 20.8256 354.226 19.0866ZM366.425 31.655V75.4467H355.469V31.655H366.425Z" stroke="url(#paint5_linear_1064_164)" stroke-opacity="0.8" stroke-width="2"/>
<path d="M397.229 31.1016C401.425 31.1016 405.181 31.9975 408.496 33.7892C411.863 35.5809 414.505 38.1895 416.422 41.6148C418.338 44.9875 419.297 48.9661 419.297 53.5508C419.297 58.1355 418.338 62.1142 416.422 65.4868C414.505 68.8595 411.863 71.468 408.496 73.3124C405.181 75.1041 401.425 76 397.229 76C393.033 76 389.251 75.1041 385.884 73.3124C382.569 71.468 379.953 68.8595 378.036 65.4868C376.119 62.1142 375.161 58.1355 375.161 53.5508C375.161 48.9661 376.119 44.9875 378.036 41.6148C379.953 38.1895 382.569 35.5809 385.884 33.7892C389.251 31.9975 393.033 31.1016 397.229 31.1016ZM397.229 40.7453C394.172 40.7453 391.582 41.8519 389.458 44.0652C387.334 46.2258 386.273 49.3877 386.273 53.5508C386.273 57.7139 387.334 60.9021 389.458 63.1154C391.582 65.276 394.172 66.3563 397.229 66.3563C400.285 66.3563 402.875 65.276 404.999 63.1154C407.123 60.9021 408.185 57.7139 408.185 53.5508C408.185 49.3877 407.123 46.2258 404.999 44.0652C402.875 41.8519 400.285 40.7453 397.229 40.7453Z" stroke="url(#paint6_linear_1064_164)" stroke-opacity="0.8" stroke-width="2"/>
<path d="M452.682 31.0226C457.655 31.0226 461.618 32.6826 464.571 36.0025C467.524 39.3225 469 43.9862 469 49.9937V75.4467H458.121V51.2585C458.121 47.7804 457.241 45.0928 455.479 43.1957C453.718 41.2459 451.309 40.271 448.253 40.271C445.145 40.271 442.658 41.2986 440.793 43.3538C438.929 45.409 437.996 48.3601 437.996 52.207V75.4467H427.04V31.655H437.996V40.4291C439.136 37.478 441.001 35.1857 443.591 33.5521C446.233 31.8657 449.263 31.0226 452.682 31.0226Z" stroke="url(#paint7_linear_1064_164)" stroke-opacity="0.8" stroke-width="2"/>
<path d="M131 61.0866C131 59.2949 131.622 57.8457 132.865 56.739C134.108 55.5797 135.74 55 137.76 55C139.781 55 141.412 55.5797 142.656 56.739C143.899 57.8457 144.521 59.2949 144.521 61.0866C144.521 62.8256 143.899 64.2748 142.656 65.4341C141.412 66.5408 139.781 67.0941 137.76 67.0941C135.74 67.0941 134.108 66.5408 132.865 65.4341C131.622 64.2748 131 62.8256 131 61.0866ZM143.2 73.655V117.447H132.243V73.655H143.2Z" stroke="url(#paint8_linear_1064_164)" stroke-width="2"/>
<path d="M178.753 73.0226C183.726 73.0226 187.689 74.6826 190.642 78.0025C193.595 81.3225 195.071 85.9862 195.071 91.9937V117.447H184.193V93.2585C184.193 89.7804 183.312 87.0928 181.551 85.1957C179.789 83.2459 177.381 82.271 174.324 82.271C171.216 82.271 168.73 83.2986 166.865 85.3538C165 87.409 164.067 90.3601 164.067 94.207V117.447H153.111V73.655H164.067V82.4291C165.207 79.478 167.072 77.1857 169.662 75.5521C172.304 73.8657 175.334 73.0226 178.753 73.0226Z" stroke="url(#paint9_linear_1064_164)" stroke-width="2"/>
<path d="M223.438 106.301L234.317 73.655H245.972L230.043 117.447H216.678L200.748 73.655H212.482L223.438 106.301Z" stroke="url(#paint10_linear_1064_164)" stroke-width="2"/>
<path d="M292.546 93.8908C292.546 94.9975 292.417 96.2622 292.158 97.6851H260.61C260.765 101.585 261.801 104.457 263.718 106.301C265.635 108.146 268.017 109.068 270.867 109.068C273.405 109.068 275.503 108.435 277.161 107.171C278.87 105.906 279.958 104.193 280.424 102.033H292.002C291.432 105.089 290.215 107.829 288.35 110.253C286.485 112.678 284.076 114.575 281.124 115.945C278.223 117.315 274.985 118 271.411 118C267.215 118 263.485 117.104 260.221 115.312C256.958 113.468 254.419 110.859 252.606 107.487C250.793 104.114 249.887 100.136 249.887 95.5508C249.887 90.9661 250.793 86.9875 252.606 83.6148C254.419 80.1895 256.958 77.5809 260.221 75.7892C263.485 73.9975 267.215 73.1016 271.411 73.1016C275.658 73.1016 279.362 73.9975 282.522 75.7892C285.734 77.5809 288.195 80.0577 289.904 83.2196C291.665 86.3287 292.546 89.8858 292.546 93.8908ZM281.512 92.7842C281.667 89.2008 280.735 86.4868 278.715 84.6424C276.746 82.798 274.312 81.8758 271.411 81.8758C268.458 81.8758 265.971 82.798 263.951 84.6424C261.931 86.4868 260.817 89.2008 260.61 92.7842H281.512Z" stroke="url(#paint11_linear_1064_164)" stroke-width="2"/>
<path d="M334.571 117.447L322.216 98.3965L311.26 117.447H298.749L316 88.9109L298.283 61.6399H311.26L323.382 80.2949L334.182 61.6399H346.693L329.52 89.7014L347.548 117.447H334.571Z" stroke="url(#paint12_linear_1064_164)" stroke-width="2"/>
<path d="M354.226 61.0866C354.226 59.2949 354.847 57.8457 356.09 56.739C357.334 55.5797 358.965 55 360.986 55C363.006 55 364.638 55.5797 365.881 56.739C367.124 57.8457 367.746 59.2949 367.746 61.0866C367.746 62.8256 367.124 64.2748 365.881 65.4341C364.638 66.5408 363.006 67.0941 360.986 67.0941C358.965 67.0941 357.334 66.5408 356.09 65.4341C354.847 64.2748 354.226 62.8256 354.226 61.0866ZM366.425 73.655V117.447H355.469V73.655H366.425Z" stroke="url(#paint13_linear_1064_164)" stroke-width="2"/>
<path d="M397.229 73.1016C401.425 73.1016 405.181 73.9975 408.496 75.7892C411.863 77.5809 414.505 80.1895 416.422 83.6148C418.338 86.9875 419.297 90.9661 419.297 95.5508C419.297 100.136 418.338 104.114 416.422 107.487C414.505 110.859 411.863 113.468 408.496 115.312C405.181 117.104 401.425 118 397.229 118C393.033 118 389.251 117.104 385.884 115.312C382.569 113.468 379.953 110.859 378.036 107.487C376.119 104.114 375.161 100.136 375.161 95.5508C375.161 90.9661 376.119 86.9875 378.036 83.6148C379.953 80.1895 382.569 77.5809 385.884 75.7892C389.251 73.9975 393.033 73.1016 397.229 73.1016ZM397.229 82.7453C394.172 82.7453 391.582 83.8519 389.458 86.0652C387.334 88.2258 386.273 91.3877 386.273 95.5508C386.273 99.7139 387.334 102.902 389.458 105.115C391.582 107.276 394.172 108.356 397.229 108.356C400.285 108.356 402.875 107.276 404.999 105.115C407.123 102.902 408.185 99.7139 408.185 95.5508C408.185 91.3877 407.123 88.2258 404.999 86.0652C402.875 83.8519 400.285 82.7453 397.229 82.7453Z" stroke="url(#paint14_linear_1064_164)" stroke-width="2"/>
<path d="M452.682 73.0226C457.655 73.0226 461.618 74.6826 464.571 78.0025C467.524 81.3225 469 85.9862 469 91.9937V117.447H458.121V93.2585C458.121 89.7804 457.241 87.0928 455.479 85.1957C453.718 83.2459 451.309 82.271 448.253 82.271C445.145 82.271 442.658 83.2986 440.793 85.3538C438.929 87.409 437.996 90.3601 437.996 94.207V117.447H427.04V73.655H437.996V82.4291C439.136 79.478 441.001 77.1857 443.591 75.5521C446.233 73.8657 449.263 73.0226 452.682 73.0226Z" stroke="url(#paint15_linear_1064_164)" stroke-width="2"/>
<path d="M131 40.0866C131 38.2949 131.622 36.8457 132.865 35.739C134.108 34.5797 135.74 34 137.76 34C139.781 34 141.412 34.5797 142.656 35.739C143.899 36.8457 144.521 38.2949 144.521 40.0866C144.521 41.8256 143.899 43.2748 142.656 44.4341C141.412 45.5408 139.781 46.0941 137.76 46.0941C135.74 46.0941 134.108 45.5408 132.865 44.4341C131.622 43.2748 131 41.8256 131 40.0866ZM143.2 52.655V96.4467H132.243V52.655H143.2Z" fill="#090619"/>
<path d="M178.753 52.0226C183.726 52.0226 187.689 53.6826 190.642 57.0025C193.595 60.3225 195.071 64.9862 195.071 70.9937V96.4467H184.193V72.2585C184.193 68.7804 183.312 66.0928 181.551 64.1957C179.789 62.2459 177.381 61.271 174.324 61.271C171.216 61.271 168.73 62.2986 166.865 64.3538C165 66.409 164.067 69.3601 164.067 73.207V96.4467H153.111V52.655H164.067V61.4291C165.207 58.478 167.072 56.1857 169.662 54.5521C172.304 52.8657 175.334 52.0226 178.753 52.0226Z" fill="#090619"/>
<path d="M223.438 85.3011L234.317 52.655H245.972L230.043 96.4467H216.678L200.748 52.655H212.482L223.438 85.3011Z" fill="#090619"/>
<path d="M292.546 72.8908C292.546 73.9975 292.417 75.2622 292.158 76.6851H260.61C260.765 80.5847 261.801 83.4567 263.718 85.3011C265.635 87.1455 268.017 88.0678 270.867 88.0678C273.405 88.0678 275.503 87.4354 277.161 86.1706C278.87 84.9059 279.958 83.1932 280.424 81.0326H292.002C291.432 84.0891 290.215 86.8294 288.35 89.2535C286.485 91.6775 284.076 93.5747 281.124 94.9448C278.223 96.3149 274.985 97 271.411 97C267.215 97 263.485 96.1041 260.221 94.3124C256.958 92.468 254.419 89.8595 252.606 86.4868C250.793 83.1142 249.887 79.1355 249.887 74.5508C249.887 69.9661 250.793 65.9875 252.606 62.6148C254.419 59.1895 256.958 56.5809 260.221 54.7892C263.485 52.9975 267.215 52.1016 271.411 52.1016C275.658 52.1016 279.362 52.9975 282.522 54.7892C285.734 56.5809 288.195 59.0577 289.904 62.2196C291.665 65.3287 292.546 68.8858 292.546 72.8908ZM281.512 71.7842C281.667 68.2008 280.735 65.4868 278.715 63.6424C276.746 61.798 274.312 60.8758 271.411 60.8758C268.458 60.8758 265.971 61.798 263.951 63.6424C261.931 65.4868 260.817 68.2008 260.61 71.7842H281.512Z" fill="#090619"/>
<path d="M334.571 96.4467L322.216 77.3965L311.26 96.4467H298.749L316 67.9109L298.283 40.6399H311.26L323.382 59.2949L334.182 40.6399H346.693L329.52 68.7014L347.548 96.4467H334.571Z" fill="#090619"/>
<path d="M354.226 40.0866C354.226 38.2949 354.847 36.8457 356.09 35.739C357.334 34.5797 358.965 34 360.986 34C363.006 34 364.638 34.5797 365.881 35.739C367.124 36.8457 367.746 38.2949 367.746 40.0866C367.746 41.8256 367.124 43.2748 365.881 44.4341C364.638 45.5408 363.006 46.0941 360.986 46.0941C358.965 46.0941 357.334 45.5408 356.09 44.4341C354.847 43.2748 354.226 41.8256 354.226 40.0866ZM366.425 52.655V96.4467H355.469V52.655H366.425Z" fill="#090619"/>
<path d="M397.229 52.1016C401.425 52.1016 405.181 52.9975 408.496 54.7892C411.863 56.5809 414.505 59.1895 416.422 62.6148C418.338 65.9875 419.297 69.9661 419.297 74.5508C419.297 79.1355 418.338 83.1142 416.422 86.4868C414.505 89.8595 411.863 92.468 408.496 94.3124C405.181 96.1041 401.425 97 397.229 97C393.033 97 389.251 96.1041 385.884 94.3124C382.569 92.468 379.953 89.8595 378.036 86.4868C376.119 83.1142 375.161 79.1355 375.161 74.5508C375.161 69.9661 376.119 65.9875 378.036 62.6148C379.953 59.1895 382.569 56.5809 385.884 54.7892C389.251 52.9975 393.033 52.1016 397.229 52.1016ZM397.229 61.7453C394.172 61.7453 391.582 62.8519 389.458 65.0652C387.334 67.2258 386.273 70.3877 386.273 74.5508C386.273 78.7139 387.334 81.9021 389.458 84.1154C391.582 86.276 394.172 87.3563 397.229 87.3563C400.285 87.3563 402.875 86.276 404.999 84.1154C407.123 81.9021 408.185 78.7139 408.185 74.5508C408.185 70.3877 407.123 67.2258 404.999 65.0652C402.875 62.8519 400.285 61.7453 397.229 61.7453Z" fill="#090619"/>
<path d="M452.682 52.0226C457.655 52.0226 461.618 53.6826 464.571 57.0025C467.524 60.3225 469 64.9862 469 70.9937V96.4467H458.121V72.2585C458.121 68.7804 457.241 66.0928 455.479 64.1957C453.718 62.2459 451.309 61.271 448.253 61.271C445.145 61.271 442.658 62.2986 440.793 64.3538C438.929 66.409 437.996 69.3601 437.996 73.207V96.4467H427.04V52.655H437.996V61.4291C439.136 58.478 441.001 56.1857 443.591 54.5521C446.233 52.8657 449.263 52.0226 452.682 52.0226Z" fill="#090619"/>
<rect x="1" y="42" width="44" height="82" stroke="#090619" stroke-width="2"/>
<rect x="22" y="24" width="2" height="17" fill="#090619"/>
<rect x="87" width="2" height="17" fill="#090619"/>
<rect x="87" y="149" width="2" height="17" fill="#090619"/>
<rect x="22" y="125" width="2" height="17" fill="#090619"/>
<rect x="66" y="17" width="44" height="132" fill="#090619"/>
<defs>
<linearGradient id="paint0_linear_1064_164" x1="300" y1="13" x2="300" y2="228.5" gradientUnits="userSpaceOnUse">
<stop stop-color="#090619"/>
<stop offset="0.150951" stop-color="#090619" stop-opacity="0"/>
</linearGradient>
<linearGradient id="paint1_linear_1064_164" x1="300" y1="13" x2="300" y2="228.5" gradientUnits="userSpaceOnUse">
<stop stop-color="#090619"/>
<stop offset="0.150951" stop-color="#090619" stop-opacity="0"/>
</linearGradient>
<linearGradient id="paint2_linear_1064_164" x1="300" y1="13" x2="300" y2="228.5" gradientUnits="userSpaceOnUse">
<stop stop-color="#090619"/>
<stop offset="0.150951" stop-color="#090619" stop-opacity="0"/>
</linearGradient>
<linearGradient id="paint3_linear_1064_164" x1="300" y1="13" x2="300" y2="228.5" gradientUnits="userSpaceOnUse">
<stop stop-color="#090619"/>
<stop offset="0.150951" stop-color="#090619" stop-opacity="0"/>
</linearGradient>
<linearGradient id="paint4_linear_1064_164" x1="300" y1="13" x2="300" y2="228.5" gradientUnits="userSpaceOnUse">
<stop stop-color="#090619"/>
<stop offset="0.150951" stop-color="#090619" stop-opacity="0"/>
</linearGradient>
<linearGradient id="paint5_linear_1064_164" x1="300" y1="13" x2="300" y2="228.5" gradientUnits="userSpaceOnUse">
<stop stop-color="#090619"/>
<stop offset="0.150951" stop-color="#090619" stop-opacity="0"/>
</linearGradient>
<linearGradient id="paint6_linear_1064_164" x1="300" y1="13" x2="300" y2="228.5" gradientUnits="userSpaceOnUse">
<stop stop-color="#090619"/>
<stop offset="0.150951" stop-color="#090619" stop-opacity="0"/>
</linearGradient>
<linearGradient id="paint7_linear_1064_164" x1="300" y1="13" x2="300" y2="228.5" gradientUnits="userSpaceOnUse">
<stop stop-color="#090619"/>
<stop offset="0.150951" stop-color="#090619" stop-opacity="0"/>
</linearGradient>
<linearGradient id="paint8_linear_1064_164" x1="300" y1="-72.5" x2="300" y2="163.5" gradientUnits="userSpaceOnUse">
<stop offset="0.705141" stop-color="#090619" stop-opacity="0"/>
<stop offset="1" stop-color="#090619"/>
</linearGradient>
<linearGradient id="paint9_linear_1064_164" x1="300" y1="-72.5" x2="300" y2="163.5" gradientUnits="userSpaceOnUse">
<stop offset="0.705141" stop-color="#090619" stop-opacity="0"/>
<stop offset="1" stop-color="#090619"/>
</linearGradient>
<linearGradient id="paint10_linear_1064_164" x1="300" y1="-72.5" x2="300" y2="163.5" gradientUnits="userSpaceOnUse">
<stop offset="0.705141" stop-color="#090619" stop-opacity="0"/>
<stop offset="1" stop-color="#090619"/>
</linearGradient>
<linearGradient id="paint11_linear_1064_164" x1="300" y1="-72.5" x2="300" y2="163.5" gradientUnits="userSpaceOnUse">
<stop offset="0.705141" stop-color="#090619" stop-opacity="0"/>
<stop offset="1" stop-color="#090619"/>
</linearGradient>
<linearGradient id="paint12_linear_1064_164" x1="300" y1="-72.5" x2="300" y2="163.5" gradientUnits="userSpaceOnUse">
<stop offset="0.705141" stop-color="#090619" stop-opacity="0"/>
<stop offset="1" stop-color="#090619"/>
</linearGradient>
<linearGradient id="paint13_linear_1064_164" x1="300" y1="-72.5" x2="300" y2="163.5" gradientUnits="userSpaceOnUse">
<stop offset="0.705141" stop-color="#090619" stop-opacity="0"/>
<stop offset="1" stop-color="#090619"/>
</linearGradient>
<linearGradient id="paint14_linear_1064_164" x1="300" y1="-72.5" x2="300" y2="163.5" gradientUnits="userSpaceOnUse">
<stop offset="0.705141" stop-color="#090619" stop-opacity="0"/>
<stop offset="1" stop-color="#090619"/>
</linearGradient>
<linearGradient id="paint15_linear_1064_164" x1="300" y1="-72.5" x2="300" y2="163.5" gradientUnits="userSpaceOnUse">
<stop offset="0.705141" stop-color="#090619" stop-opacity="0"/>
<stop offset="1" stop-color="#090619"/>
</linearGradient>
</defs>
</svg>
