<svg width="470" height="166" viewBox="0 0 470 166" fill="none" xmlns="http://www.w3.org/2000/svg">
<path d="M131 37.0866C131 35.2949 131.622 33.8457 132.865 32.739C134.108 31.5797 135.74 31 137.76 31C139.781 31 141.412 31.5797 142.656 32.739C143.899 33.8457 144.521 35.2949 144.521 37.0866C144.521 38.8256 143.899 40.2748 142.656 41.4341C141.412 42.5408 139.781 43.0941 137.76 43.0941C135.74 43.0941 134.108 42.5408 132.865 41.4341C131.622 40.2748 131 38.8256 131 37.0866ZM143.2 49.655V93.4467H132.243V49.655H143.2Z" stroke="url(#paint0_linear_1064_175)" stroke-opacity="0.8" stroke-width="2"/>
<path d="M178.753 49.0226C183.726 49.0226 187.689 50.6826 190.642 54.0025C193.595 57.3225 195.071 61.9862 195.071 67.9937V93.4467H184.193V69.2585C184.193 65.7804 183.312 63.0928 181.551 61.1957C179.789 59.2459 177.381 58.271 174.324 58.271C171.216 58.271 168.73 59.2986 166.865 61.3538C165 63.409 164.067 66.3601 164.067 70.207V93.4467H153.111V49.655H164.067V58.4291C165.207 55.478 167.072 53.1857 169.662 51.5521C172.304 49.8657 175.334 49.0226 178.753 49.0226Z" stroke="url(#paint1_linear_1064_175)" stroke-opacity="0.8" stroke-width="2"/>
<path d="M223.438 82.3011L234.317 49.655H245.972L230.043 93.4467H216.678L200.748 49.655H212.482L223.438 82.3011Z" stroke="url(#paint2_linear_1064_175)" stroke-opacity="0.8" stroke-width="2"/>
<path d="M292.546 69.8908C292.546 70.9975 292.417 72.2622 292.158 73.6851H260.61C260.765 77.5847 261.801 80.4567 263.718 82.3011C265.635 84.1455 268.017 85.0678 270.867 85.0678C273.405 85.0678 275.503 84.4354 277.161 83.1706C278.87 81.9059 279.958 80.1932 280.424 78.0326H292.002C291.432 81.0891 290.215 83.8294 288.35 86.2535C286.485 88.6775 284.076 90.5747 281.124 91.9448C278.223 93.3149 274.985 94 271.411 94C267.215 94 263.485 93.1041 260.221 91.3124C256.958 89.468 254.419 86.8595 252.606 83.4868C250.793 80.1142 249.887 76.1355 249.887 71.5508C249.887 66.9661 250.793 62.9875 252.606 59.6148C254.419 56.1895 256.958 53.5809 260.221 51.7892C263.485 49.9975 267.215 49.1016 271.411 49.1016C275.658 49.1016 279.362 49.9975 282.522 51.7892C285.734 53.5809 288.195 56.0577 289.904 59.2196C291.665 62.3287 292.546 65.8858 292.546 69.8908ZM281.512 68.7842C281.667 65.2008 280.735 62.4868 278.715 60.6424C276.746 58.798 274.312 57.8758 271.411 57.8758C268.458 57.8758 265.971 58.798 263.951 60.6424C261.931 62.4868 260.817 65.2008 260.61 68.7842H281.512Z" stroke="url(#paint3_linear_1064_175)" stroke-opacity="0.8" stroke-width="2"/>
<path d="M334.571 93.4467L322.216 74.3965L311.26 93.4467H298.749L316 64.9109L298.283 37.6399H311.26L323.382 56.2949L334.182 37.6399H346.693L329.52 65.7014L347.548 93.4467H334.571Z" stroke="url(#paint4_linear_1064_175)" stroke-opacity="0.8" stroke-width="2"/>
<path d="M354.226 37.0866C354.226 35.2949 354.847 33.8457 356.09 32.739C357.334 31.5797 358.965 31 360.986 31C363.006 31 364.638 31.5797 365.881 32.739C367.124 33.8457 367.746 35.2949 367.746 37.0866C367.746 38.8256 367.124 40.2748 365.881 41.4341C364.638 42.5408 363.006 43.0941 360.986 43.0941C358.965 43.0941 357.334 42.5408 356.09 41.4341C354.847 40.2748 354.226 38.8256 354.226 37.0866ZM366.425 49.655V93.4467H355.469V49.655H366.425Z" stroke="url(#paint5_linear_1064_175)" stroke-opacity="0.8" stroke-width="2"/>
<path d="M397.229 49.1016C401.425 49.1016 405.181 49.9975 408.496 51.7892C411.863 53.5809 414.505 56.1895 416.422 59.6148C418.338 62.9875 419.297 66.9661 419.297 71.5508C419.297 76.1355 418.338 80.1142 416.422 83.4868C414.505 86.8595 411.863 89.468 408.496 91.3124C405.181 93.1041 401.425 94 397.229 94C393.033 94 389.251 93.1041 385.884 91.3124C382.569 89.468 379.953 86.8595 378.036 83.4868C376.119 80.1142 375.161 76.1355 375.161 71.5508C375.161 66.9661 376.119 62.9875 378.036 59.6148C379.953 56.1895 382.569 53.5809 385.884 51.7892C389.251 49.9975 393.033 49.1016 397.229 49.1016ZM397.229 58.7453C394.172 58.7453 391.582 59.8519 389.458 62.0652C387.334 64.2258 386.273 67.3877 386.273 71.5508C386.273 75.7139 387.334 78.9021 389.458 81.1154C391.582 83.276 394.172 84.3563 397.229 84.3563C400.285 84.3563 402.875 83.276 404.999 81.1154C407.123 78.9021 408.185 75.7139 408.185 71.5508C408.185 67.3877 407.123 64.2258 404.999 62.0652C402.875 59.8519 400.285 58.7453 397.229 58.7453Z" stroke="url(#paint6_linear_1064_175)" stroke-opacity="0.8" stroke-width="2"/>
<path d="M452.682 49.0226C457.655 49.0226 461.618 50.6826 464.571 54.0025C467.524 57.3225 469 61.9862 469 67.9937V93.4467H458.121V69.2585C458.121 65.7804 457.241 63.0928 455.479 61.1957C453.718 59.2459 451.309 58.271 448.253 58.271C445.145 58.271 442.658 59.2986 440.793 61.3538C438.929 63.409 437.996 66.3601 437.996 70.207V93.4467H427.04V49.655H437.996V58.4291C439.136 55.478 441.001 53.1857 443.591 51.5521C446.233 49.8657 449.263 49.0226 452.682 49.0226Z" stroke="url(#paint7_linear_1064_175)" stroke-opacity="0.8" stroke-width="2"/>
<path d="M131 79.0866C131 77.2949 131.622 75.8457 132.865 74.739C134.108 73.5797 135.74 73 137.76 73C139.781 73 141.412 73.5797 142.656 74.739C143.899 75.8457 144.521 77.2949 144.521 79.0866C144.521 80.8256 143.899 82.2748 142.656 83.4341C141.412 84.5408 139.781 85.0941 137.76 85.0941C135.74 85.0941 134.108 84.5408 132.865 83.4341C131.622 82.2748 131 80.8256 131 79.0866ZM143.2 91.655V135.447H132.243V91.655H143.2Z" stroke="url(#paint8_linear_1064_175)" stroke-width="2"/>
<path d="M178.753 91.0226C183.726 91.0226 187.689 92.6826 190.642 96.0025C193.595 99.3225 195.071 103.986 195.071 109.994V135.447H184.193V111.258C184.193 107.78 183.312 105.093 181.551 103.196C179.789 101.246 177.381 100.271 174.324 100.271C171.216 100.271 168.73 101.299 166.865 103.354C165 105.409 164.067 108.36 164.067 112.207V135.447H153.111V91.655H164.067V100.429C165.207 97.478 167.072 95.1857 169.662 93.5521C172.304 91.8657 175.334 91.0226 178.753 91.0226Z" stroke="url(#paint9_linear_1064_175)" stroke-width="2"/>
<path d="M223.438 124.301L234.317 91.655H245.972L230.043 135.447H216.678L200.748 91.655H212.482L223.438 124.301Z" stroke="url(#paint10_linear_1064_175)" stroke-width="2"/>
<path d="M292.546 111.891C292.546 112.997 292.417 114.262 292.158 115.685H260.61C260.765 119.585 261.801 122.457 263.718 124.301C265.635 126.146 268.017 127.068 270.867 127.068C273.405 127.068 275.503 126.435 277.161 125.171C278.87 123.906 279.958 122.193 280.424 120.033H292.002C291.432 123.089 290.215 125.829 288.35 128.253C286.485 130.678 284.076 132.575 281.124 133.945C278.223 135.315 274.985 136 271.411 136C267.215 136 263.485 135.104 260.221 133.312C256.958 131.468 254.419 128.859 252.606 125.487C250.793 122.114 249.887 118.136 249.887 113.551C249.887 108.966 250.793 104.987 252.606 101.615C254.419 98.1895 256.958 95.5809 260.221 93.7892C263.485 91.9975 267.215 91.1016 271.411 91.1016C275.658 91.1016 279.362 91.9975 282.522 93.7892C285.734 95.5809 288.195 98.0577 289.904 101.22C291.665 104.329 292.546 107.886 292.546 111.891ZM281.512 110.784C281.667 107.201 280.735 104.487 278.715 102.642C276.746 100.798 274.312 99.8758 271.411 99.8758C268.458 99.8758 265.971 100.798 263.951 102.642C261.931 104.487 260.817 107.201 260.61 110.784H281.512Z" stroke="url(#paint11_linear_1064_175)" stroke-width="2"/>
<path d="M334.571 135.447L322.216 116.396L311.26 135.447H298.749L316 106.911L298.283 79.6399H311.26L323.382 98.2949L334.182 79.6399H346.693L329.52 107.701L347.548 135.447H334.571Z" stroke="url(#paint12_linear_1064_175)" stroke-width="2"/>
<path d="M354.226 79.0866C354.226 77.2949 354.847 75.8457 356.09 74.739C357.334 73.5797 358.965 73 360.986 73C363.006 73 364.638 73.5797 365.881 74.739C367.124 75.8457 367.746 77.2949 367.746 79.0866C367.746 80.8256 367.124 82.2748 365.881 83.4341C364.638 84.5408 363.006 85.0941 360.986 85.0941C358.965 85.0941 357.334 84.5408 356.09 83.4341C354.847 82.2748 354.226 80.8256 354.226 79.0866ZM366.425 91.655V135.447H355.469V91.655H366.425Z" stroke="url(#paint13_linear_1064_175)" stroke-width="2"/>
<path d="M397.229 91.1016C401.425 91.1016 405.181 91.9975 408.496 93.7892C411.863 95.5809 414.505 98.1895 416.422 101.615C418.338 104.987 419.297 108.966 419.297 113.551C419.297 118.136 418.338 122.114 416.422 125.487C414.505 128.859 411.863 131.468 408.496 133.312C405.181 135.104 401.425 136 397.229 136C393.033 136 389.251 135.104 385.884 133.312C382.569 131.468 379.953 128.859 378.036 125.487C376.119 122.114 375.161 118.136 375.161 113.551C375.161 108.966 376.119 104.987 378.036 101.615C379.953 98.1895 382.569 95.5809 385.884 93.7892C389.251 91.9975 393.033 91.1016 397.229 91.1016ZM397.229 100.745C394.172 100.745 391.582 101.852 389.458 104.065C387.334 106.226 386.273 109.388 386.273 113.551C386.273 117.714 387.334 120.902 389.458 123.115C391.582 125.276 394.172 126.356 397.229 126.356C400.285 126.356 402.875 125.276 404.999 123.115C407.123 120.902 408.185 117.714 408.185 113.551C408.185 109.388 407.123 106.226 404.999 104.065C402.875 101.852 400.285 100.745 397.229 100.745Z" stroke="url(#paint14_linear_1064_175)" stroke-width="2"/>
<path d="M452.682 91.0226C457.655 91.0226 461.618 92.6826 464.571 96.0025C467.524 99.3225 469 103.986 469 109.994V135.447H458.121V111.258C458.121 107.78 457.241 105.093 455.479 103.196C453.718 101.246 451.309 100.271 448.253 100.271C445.145 100.271 442.658 101.299 440.793 103.354C438.929 105.409 437.996 108.36 437.996 112.207V135.447H427.04V91.655H437.996V100.429C439.136 97.478 441.001 95.1857 443.591 93.5521C446.233 91.8657 449.263 91.0226 452.682 91.0226Z" stroke="url(#paint15_linear_1064_175)" stroke-width="2"/>
<path d="M131 58.0866C131 56.2949 131.622 54.8457 132.865 53.739C134.108 52.5797 135.74 52 137.76 52C139.781 52 141.412 52.5797 142.656 53.739C143.899 54.8457 144.521 56.2949 144.521 58.0866C144.521 59.8256 143.899 61.2748 142.656 62.4341C141.412 63.5408 139.781 64.0941 137.76 64.0941C135.74 64.0941 134.108 63.5408 132.865 62.4341C131.622 61.2748 131 59.8256 131 58.0866ZM143.2 70.655V114.447H132.243V70.655H143.2Z" fill="#090619"/>
<path d="M178.753 70.0226C183.726 70.0226 187.689 71.6826 190.642 75.0025C193.595 78.3225 195.071 82.9862 195.071 88.9937V114.447H184.193V90.2585C184.193 86.7804 183.312 84.0928 181.551 82.1957C179.789 80.2459 177.381 79.271 174.324 79.271C171.216 79.271 168.73 80.2986 166.865 82.3538C165 84.409 164.067 87.3601 164.067 91.207V114.447H153.111V70.655H164.067V79.4291C165.207 76.478 167.072 74.1857 169.662 72.5521C172.304 70.8657 175.334 70.0226 178.753 70.0226Z" fill="#090619"/>
<path d="M223.438 103.301L234.317 70.655H245.972L230.043 114.447H216.678L200.748 70.655H212.482L223.438 103.301Z" fill="#090619"/>
<path d="M292.546 90.8908C292.546 91.9975 292.417 93.2622 292.158 94.6851H260.61C260.765 98.5847 261.801 101.457 263.718 103.301C265.635 105.146 268.017 106.068 270.867 106.068C273.405 106.068 275.503 105.435 277.161 104.171C278.87 102.906 279.958 101.193 280.424 99.0326H292.002C291.432 102.089 290.215 104.829 288.35 107.253C286.485 109.678 284.076 111.575 281.124 112.945C278.223 114.315 274.985 115 271.411 115C267.215 115 263.485 114.104 260.221 112.312C256.958 110.468 254.419 107.859 252.606 104.487C250.793 101.114 249.887 97.1355 249.887 92.5508C249.887 87.9661 250.793 83.9875 252.606 80.6148C254.419 77.1895 256.958 74.5809 260.221 72.7892C263.485 70.9975 267.215 70.1016 271.411 70.1016C275.658 70.1016 279.362 70.9975 282.522 72.7892C285.734 74.5809 288.195 77.0577 289.904 80.2196C291.665 83.3287 292.546 86.8858 292.546 90.8908ZM281.512 89.7842C281.667 86.2008 280.735 83.4868 278.715 81.6424C276.746 79.798 274.312 78.8758 271.411 78.8758C268.458 78.8758 265.971 79.798 263.951 81.6424C261.931 83.4868 260.817 86.2008 260.61 89.7842H281.512Z" fill="#090619"/>
<path d="M334.571 114.447L322.216 95.3965L311.26 114.447H298.749L316 85.9109L298.283 58.6399H311.26L323.382 77.2949L334.182 58.6399H346.693L329.52 86.7014L347.548 114.447H334.571Z" fill="#090619"/>
<path d="M354.226 58.0866C354.226 56.2949 354.847 54.8457 356.09 53.739C357.334 52.5797 358.965 52 360.986 52C363.006 52 364.638 52.5797 365.881 53.739C367.124 54.8457 367.746 56.2949 367.746 58.0866C367.746 59.8256 367.124 61.2748 365.881 62.4341C364.638 63.5408 363.006 64.0941 360.986 64.0941C358.965 64.0941 357.334 63.5408 356.09 62.4341C354.847 61.2748 354.226 59.8256 354.226 58.0866ZM366.425 70.655V114.447H355.469V70.655H366.425Z" fill="#090619"/>
<path d="M397.229 70.1016C401.425 70.1016 405.181 70.9975 408.496 72.7892C411.863 74.5809 414.505 77.1895 416.422 80.6148C418.338 83.9875 419.297 87.9661 419.297 92.5508C419.297 97.1355 418.338 101.114 416.422 104.487C414.505 107.859 411.863 110.468 408.496 112.312C405.181 114.104 401.425 115 397.229 115C393.033 115 389.251 114.104 385.884 112.312C382.569 110.468 379.953 107.859 378.036 104.487C376.119 101.114 375.161 97.1355 375.161 92.5508C375.161 87.9661 376.119 83.9875 378.036 80.6148C379.953 77.1895 382.569 74.5809 385.884 72.7892C389.251 70.9975 393.033 70.1016 397.229 70.1016ZM397.229 79.7453C394.172 79.7453 391.582 80.8519 389.458 83.0652C387.334 85.2258 386.273 88.3877 386.273 92.5508C386.273 96.7139 387.334 99.9021 389.458 102.115C391.582 104.276 394.172 105.356 397.229 105.356C400.285 105.356 402.875 104.276 404.999 102.115C407.123 99.9021 408.185 96.7139 408.185 92.5508C408.185 88.3877 407.123 85.2258 404.999 83.0652C402.875 80.8519 400.285 79.7453 397.229 79.7453Z" fill="#090619"/>
<path d="M452.682 70.0226C457.655 70.0226 461.618 71.6826 464.571 75.0025C467.524 78.3225 469 82.9862 469 88.9937V114.447H458.121V90.2585C458.121 86.7804 457.241 84.0928 455.479 82.1957C453.718 80.2459 451.309 79.271 448.253 79.271C445.145 79.271 442.658 80.2986 440.793 82.3538C438.929 84.409 437.996 87.3601 437.996 91.207V114.447H427.04V70.655H437.996V79.4291C439.136 76.478 441.001 74.1857 443.591 72.5521C446.233 70.8657 449.263 70.0226 452.682 70.0226Z" fill="#090619"/>
<rect x="1" y="42" width="44" height="82" stroke="#090619" stroke-width="2"/>
<rect x="22" y="24" width="2" height="17" fill="#090619"/>
<rect x="87" width="2" height="17" fill="#090619"/>
<rect x="87" y="149" width="2" height="17" fill="#090619"/>
<rect x="22" y="125" width="2" height="17" fill="#090619"/>
<rect x="66" y="17" width="44" height="132" fill="#090619"/>
<defs>
<linearGradient id="paint0_linear_1064_175" x1="300" y1="31" x2="300" y2="246.5" gradientUnits="userSpaceOnUse">
<stop stop-color="#090619"/>
<stop offset="0.150951" stop-color="#090619" stop-opacity="0"/>
</linearGradient>
<linearGradient id="paint1_linear_1064_175" x1="300" y1="31" x2="300" y2="246.5" gradientUnits="userSpaceOnUse">
<stop stop-color="#090619"/>
<stop offset="0.150951" stop-color="#090619" stop-opacity="0"/>
</linearGradient>
<linearGradient id="paint2_linear_1064_175" x1="300" y1="31" x2="300" y2="246.5" gradientUnits="userSpaceOnUse">
<stop stop-color="#090619"/>
<stop offset="0.150951" stop-color="#090619" stop-opacity="0"/>
</linearGradient>
<linearGradient id="paint3_linear_1064_175" x1="300" y1="31" x2="300" y2="246.5" gradientUnits="userSpaceOnUse">
<stop stop-color="#090619"/>
<stop offset="0.150951" stop-color="#090619" stop-opacity="0"/>
</linearGradient>
<linearGradient id="paint4_linear_1064_175" x1="300" y1="31" x2="300" y2="246.5" gradientUnits="userSpaceOnUse">
<stop stop-color="#090619"/>
<stop offset="0.150951" stop-color="#090619" stop-opacity="0"/>
</linearGradient>
<linearGradient id="paint5_linear_1064_175" x1="300" y1="31" x2="300" y2="246.5" gradientUnits="userSpaceOnUse">
<stop stop-color="#090619"/>
<stop offset="0.150951" stop-color="#090619" stop-opacity="0"/>
</linearGradient>
<linearGradient id="paint6_linear_1064_175" x1="300" y1="31" x2="300" y2="246.5" gradientUnits="userSpaceOnUse">
<stop stop-color="#090619"/>
<stop offset="0.150951" stop-color="#090619" stop-opacity="0"/>
</linearGradient>
<linearGradient id="paint7_linear_1064_175" x1="300" y1="31" x2="300" y2="246.5" gradientUnits="userSpaceOnUse">
<stop stop-color="#090619"/>
<stop offset="0.150951" stop-color="#090619" stop-opacity="0"/>
</linearGradient>
<linearGradient id="paint8_linear_1064_175" x1="300" y1="-54.5" x2="300" y2="181.5" gradientUnits="userSpaceOnUse">
<stop offset="0.705141" stop-color="#090619" stop-opacity="0"/>
<stop offset="1" stop-color="#090619"/>
</linearGradient>
<linearGradient id="paint9_linear_1064_175" x1="300" y1="-54.5" x2="300" y2="181.5" gradientUnits="userSpaceOnUse">
<stop offset="0.705141" stop-color="#090619" stop-opacity="0"/>
<stop offset="1" stop-color="#090619"/>
</linearGradient>
<linearGradient id="paint10_linear_1064_175" x1="300" y1="-54.5" x2="300" y2="181.5" gradientUnits="userSpaceOnUse">
<stop offset="0.705141" stop-color="#090619" stop-opacity="0"/>
<stop offset="1" stop-color="#090619"/>
</linearGradient>
<linearGradient id="paint11_linear_1064_175" x1="300" y1="-54.5" x2="300" y2="181.5" gradientUnits="userSpaceOnUse">
<stop offset="0.705141" stop-color="#090619" stop-opacity="0"/>
<stop offset="1" stop-color="#090619"/>
</linearGradient>
<linearGradient id="paint12_linear_1064_175" x1="300" y1="-54.5" x2="300" y2="181.5" gradientUnits="userSpaceOnUse">
<stop offset="0.705141" stop-color="#090619" stop-opacity="0"/>
<stop offset="1" stop-color="#090619"/>
</linearGradient>
<linearGradient id="paint13_linear_1064_175" x1="300" y1="-54.5" x2="300" y2="181.5" gradientUnits="userSpaceOnUse">
<stop offset="0.705141" stop-color="#090619" stop-opacity="0"/>
<stop offset="1" stop-color="#090619"/>
</linearGradient>
<linearGradient id="paint14_linear_1064_175" x1="300" y1="-54.5" x2="300" y2="181.5" gradientUnits="userSpaceOnUse">
<stop offset="0.705141" stop-color="#090619" stop-opacity="0"/>
<stop offset="1" stop-color="#090619"/>
</linearGradient>
<linearGradient id="paint15_linear_1064_175" x1="300" y1="-54.5" x2="300" y2="181.5" gradientUnits="userSpaceOnUse">
<stop offset="0.705141" stop-color="#090619" stop-opacity="0"/>
<stop offset="1" stop-color="#090619"/>
</linearGradient>
</defs>
</svg>
