<svg xmlns="http://www.w3.org/2000/svg" style="color: white" width="24" height="24" fill="none" viewBox="0 0 24 24"><path fill="currentColor" fill-rule="evenodd" d="M14.5 5.5A.5.5 0 0 0 14 5H5.5A1.5 1.5 0 0 0 4 6.5v12A1.5 1.5 0 0 0 5.5 20H14a.5.5 0 0 0 0-1H5.5a.5.5 0 0 1-.5-.5v-12a.5.5 0 0 1 .5-.5H14a.5.5 0 0 0 .5-.5m-.034 11.206A.5.5 0 0 1 14.5 16l3.648-3H9.5a.5.5 0 0 1 0-1h8.644l-3.678-3a.5.5 0 1 1 .673-.74l4.697 3.87a.5.5 0 0 1 0 .74l-4.663 3.87a.5.5 0 0 1-.707-.034" clip-rule="evenodd"></path></svg>